<?xml version="1.0" encoding="utf-8"?>
<!-- Generator: Adobe Illustrator 18.1.0, SVG Export Plug-In . SVG Version: 6.00 Build 0)  -->
<!DOCTYPE svg PUBLIC "-//W3C//DTD SVG 1.1//EN" "http://www.w3.org/Graphics/SVG/1.1/DTD/svg11.dtd">
<svg version="1.1" xmlns="http://www.w3.org/2000/svg" xmlns:xlink="http://www.w3.org/1999/xlink" x="0px" y="0px"
	 viewBox="0 0 216 216" enable-background="new 0 0 216 216" xml:space="preserve">
<g id="Layer_2">
	<g>
		<path fill="none" stroke="#010101" stroke-width="3.3965" stroke-miterlimit="10" d="M67.8,61.3c6.8,0,11.2-10.7,11.3-16.4
			c0.1-7.2,6.2-39.6,31.1-40.2s28.9,36.8,30,40.8s4.5,14.2,11.3,15.9s17,1.1,23.8,1.7c6.8,0.6,13.6,3.4,15.3,15.9
			c1.7,12.5,0,51.5-8.5,68.5c-4-5.1-8.5-11.9-11.9-11.9c-3.4,0-9.6,31.1-10.8,34.5c-1.1,3.4-9.1-1.7-10.8-3.4s-10.2,4.5-10.8,7.9
			c-0.6,3.4-2.8,19.2-5.7,15.3c-2.8-4-9.1-4.4-10.2,0.6c-1.1,5-9.6,11.8-10.2,20.9c-3.4-4-5.7-25.5-9.1-29.4
			c-3.4-4-15.3-17-18.1,5.7c-6.2-2.8-16.4-18.1-17-23.2c-0.6-5.1-6.2-11.8-9.1-4.2c-4-0.3-6.8-21.9-12.5-23
			c-5.7-1.1-6.2,1.7-6.2,9.1c-4-3.4-16.4-12.5-15.3-48.1c1.1-35.7,13.6-38.5,19.8-37.9C50.8,60.7,59.3,61.3,67.8,61.3z"/>
		<path fill="#010101" d="M101.7,33.3c2.3,8.5,4.2,20-2.5,21.7c-6.8,1.7-9.1-4.6-5.1-9.3C96.6,42.6,99.5,39.2,101.7,33.3z"/>
		<path fill="#010101" d="M117.4,33.3c-2.3,8.5-4.2,20,2.5,21.7c6.8,1.7,9.1-4.6,5.1-9.3C122.5,42.6,119.5,39.2,117.4,33.3z"/>
	</g>
</g>
</svg>
