<svg id="pumpkin" version="1.1" xmlns="http://www.w3.org/2000/svg" xmlns:xlink="http://www.w3.org/1999/xlink" x="0px" y="0px"
	 viewBox="0 0 216 216" enable-background="new 0 0 216 216" xml:space="preserve">

    <!--fill="#F78D25"-->

	<path id="pumpkin-body" class="pumpkin" fill="#F78D25" stroke="#010101"  d="M148.6,201c0,0-2.5,0.3-6,0.6h0c-1.2,0.1-2.4,0.2-3.8,0.3c-4.5,0.3-9.3,0.3-11.5-0.4
		c-0.4-0.1-0.7-0.3-0.9-0.4c-0.3,0.3-0.6,0.6-1.1,0.9h0c-3.1,2.2-9.9,4.6-16.3,4.6c-6.1,0-15.2-2.3-19.3-3.8h0
		c-0.8-0.3-1.4-0.5-1.7-0.7c-0.2,0.1-0.4,0.1-0.7,0.2c-2.4,0.7-7,1.4-10.6,1.4c-1,0-1.9-0.1-2.9-0.3h0c-1.6-0.3-3.1-0.8-4.6-1.3
		c-1.2-0.4-2.4-0.8-3.5-1c-9.3-2-39.1-17.5-50.9-49.1C3.1,121-0.3,46,56.3,51.8c0,0,0,0,0,0c1.3,0.1,2.7,0.3,4.1,0.5
		c0.7-0.2,1.5-0.4,2.3-0.5c0,0,0,0,0,0c8.4-1.6,21.7-1.4,26.9,0.7c0.4,0.1,0.7,0.3,0.9,0.4c0.9-0.1,2-0.3,3.4-0.4
		c5.9-0.8,15.6-2.1,23-1c1,0.1,2,0.3,2.9,0.6c0.5-0.2,1.1-0.4,1.7-0.5c4.7-1.3,12.8-2.2,18.5-1.8c0,0,0,0,0,0c2.2,0.1,4,0.4,5.2,1
		c0.8-0.3,2.3-0.7,4.5-0.9c11-1,36.9,1.3,45.9,19C206.6,90.1,222.7,167.9,148.6,201z"/>
	<path id="pumpkin-stem" class="pumpkin" fill="none" stroke="#010101" d="M91.6,48.9c8.7-9.8,19.7-41.2,25.5-39.3c5.9,1.9,8.5,5.9,7.3,7.1c-1.2,1.2-9.6,11.9-8.9,18.5
		s4.1,11.4,5.8,13.1c-6.1-1.7-12.2-1.4-16.2-1.4C101.2,46.8,95.7,47.6,91.6,48.9z"/>
	<path id="pumpkin-left-eye" class="pumpkin" fill="none" stroke="#010101" d="M48.6,117.2c0.7-13.9,6.6-23.3,11.3-28.1c6.2,9,23.8,34.4,23.8,34.4S55.4,119.6,48.6,117.2z"/>
	<path id="pumpkin-right-eye" class="pumpkin" fill="none" stroke="#010101" d="M131.4,121.9l21-32.8c0,0,9.9,10.4,11.6,27.8C157.6,118.6,131.4,121.9,131.4,121.9z"/>
	<path id="pumpkin-mouth" class="pumpkin" fill="none" stroke="#010101" d="M42.2,141.3c4.7,7.3,21.7,25.9,41.5,28.8c2.1-6.6,4.2-9.4,6.8-11.3c0.2,3.1,2.2,12.5,6.3,13.7
		c5.5,1.9,11.1,1.1,15.9,0.5c2.4-2.1,5-8.3,4-12.5c3.8,2.4,8,8.8,8.7,11c5-0.8,28.5-9.3,44.8-28c-6.4,1.9-22.4,3.3-29,3.5
		c-0.5,2.8-1.9,6.4-6.4,10.6c0.5-4.6-0.2-9.8-4.7-9.8c-2.2,0-13,1.6-23.7,1.7c-10.9,0.1-23.2-1.9-25.1-1.9c-2.1,3.1-4.2,5.3-3.3,10
		c-3.1-3.3-5-6.7-5-11C65.4,145.5,46.5,143.2,42.2,141.3z"/>
	<path id="pumpkin-top-vien-1" class="pumpkin" fill="none" stroke="#010101" d="M62.7,51.8c-4,1.3-12.4,17-14.1,26c-0.4-12.8,6.5-23.8,7.7-26c1.3,0.1,2.7,0.3,4.1,0.5
		C61.1,52.2,61.9,52,62.7,51.8z"/>
	<path id="pumpkin-top-vien-2" class="pumpkin" fill="none" stroke="#010101" d="M94,52.5c-2.2,4.4-5.9,14.2-5.7,20.1c-0.6-8,0.3-15.8,1.4-20.1c0.4,0.1,0.7,0.3,0.9,0.4
		C91.5,52.8,92.6,52.7,94,52.5z"/>
	<path id="pumpkin-top-vien-4" class="pumpkin" fill="none" stroke="#010101" d="M156.8,77.8c-1.7-9-10.1-24.7-14.1-26c0,0-1.4-0.9-2.6-2.1c2.2,0.1,4,0.4,5.2,1c0.8-0.3,2.3-0.7,4.5-0.9
		c-0.4,1.1-0.7,2-0.7,2C150.3,54.1,157.3,65,156.8,77.8z"/>
	<path id="pumpkin-top-vien-3" class="pumpkin" fill="none" stroke="#010101"  d="M123.2,72.7c0.2-6.4-4.3-17.6-6.3-21.2c1,0.1,2,0.3,2.9,0.6c0.5-0.2,1.1-0.4,1.7-0.5
		C122.7,55.6,123.9,64,123.2,72.7z"/>
	<path id="pumpkin-bottom-vien-1" class="pumpkin" fill="none" stroke="#010101" d="M73.7,203.2c-1.6-0.3-3.1-0.8-4.6-1.3c-3.8-5-5.4-11-5.6-13.7C64.7,191.1,69.5,199.5,73.7,203.2z"/>
	<path id="pumpkin-bottom-vien-4" class="pumpkin" fill="none" stroke="#010101" d="M148.7,187.2c-0.3,2.7-2,9.2-6.1,14.3h0c-1.2,0.1-2.4,0.2-3.8,0.3C143,198,147.5,190,148.7,187.2z"/>
	<path id="pumpkin-bottom-vien-3" class="pumpkin" fill="none" stroke="#010101" d="M127.3,201.4c-0.4-0.1-0.7-0.3-0.9-0.4c-0.3,0.3-0.6,0.6-1.1,0.9c1.6-3.3,2.6-8.8,2.8-10.7
		C128.6,192.9,128.9,197.3,127.3,201.4z"/>
	<path id="pumpkin-bottom-vien-3" class="pumpkin" fill="none" stroke="#010101" d="M89.7,202.6c-0.8-0.3-1.4-0.5-1.7-0.7c-0.2,0.1-0.4,0.1-0.7,0.2c-2.4-4.5-2.1-10-1.6-12.1
		C85.9,192.4,87.4,200.1,89.7,202.6z"/>

</svg>