
<svg version="1.1" id="Layer_1" xmlns="http://www.w3.org/2000/svg" xmlns:xlink="http://www.w3.org/1999/xlink" x="0px" y="0px"
	 width="639.769px" height="625.626px" viewBox="94.36 87.333 639.769 625.626"
	 enable-background="new 94.36 87.333 639.769 625.626" xml:space="preserve">
<g id="Layer_1_1_">
</g>

	<g id="Layer_77">
	</g>
	<g id="vader">
		<g>
			<path d="M412.831,88.111c-5.207,1.259-5.207,1.259,2.717,5.124c6.724,3.279,10.808,3.864,26.957,3.864
				c10.839,0,22.744,1.03,27.654,2.392c10.614,2.943,44.642,15.684,52.804,19.77c12.534,6.275,26.114,17.975,39.324,33.882
				c12.251,14.752,14.37,16.548,20.229,17.147c5.013,0.512,6.333,0.111,5.635-1.711c-1.856-4.837-19.045-28.521-22.495-30.996
				c-23.364-16.759-58.921-34.973-85.948-44.028c-14.218-4.763-19.12-5.528-38.967-6.076
				C428.254,87.134,415.694,87.419,412.831,88.111L412.831,88.111"/>
		</g>
		<g>
			<path d="M387.666,97.043c0,3.231,19.09,16.055,31.295,21.022c13.282,5.405,44.516,28.261,53.479,39.135
				c6.572,7.973,24.014,43.373,26.22,53.217c0.932,4.157,2.228,21.242,2.881,37.966c1.187,30.408,1.187,30.408-2.832,31.459
				c-2.275,0.594-11.838-1.145-22.034-4.008c-9.909-2.782-22.859-5.885-28.781-6.895c-5.92-1.01-12.521-2.224-14.67-2.698
				c-5.984-1.32-4.896,3.81,1.514,7.124c7.097,3.67,69.38,30.263,70.879,30.263c0.636,0,0.822-4.605,0.416-10.233
				c-0.836-11.558-1.908-10.778,18.247-13.26l9.051-1.114l0.494-16.767l0.495-16.767l5.207,9.976
				c2.862,5.486,5.879,9.977,6.701,9.979s8.793-2.729,17.714-6.07c17.127-6.415,26.224-7.294,45.874-4.431
				c5.25,0.765,9.755,1.215,10.011,0.999c0.886-0.746-9.538-24.96-14.084-32.717c-7.47-12.746-41.552-54.966-54.334-67.306
				c-10.209-9.856-15.304-13.069-36.181-22.814c-29.979-13.997-39.627-16.913-55.942-16.913c-11.397,0-15.816-1.135-40.521-10.413
				C389.792,94.896,387.666,94.299,387.666,97.043L387.666,97.043"/>
		</g>
		<g>
			<path d="M317.376,116.33c-31.899,2.805-60.605,25.009-92.22,71.332c-13.696,20.067-20.684,35.596-26.653,59.23
				c-9.564,37.87-11.005,50.516-10.639,93.366c0.287,33.623-0.158,41.44-3.111,54.669c-4.974,22.282-9.986,37.588-17.523,53.507
				c-8.798,18.585-18.88,43.65-41.928,104.243c-10.529,27.683-21.799,57.242-25.043,65.69c-3.244,8.449-5.898,16.062-5.898,16.922
				c0,4.055,7.384,0.601,20.005-9.358c17.53-13.833,23.402-17.793,56.359-38.008c29.248-17.939,37.099-21.194,58.128-24.092
				c15.985-2.202,22.387-5.377,25.836-12.813c1.347-2.905,3.655-15.826,5.128-28.713c1.83-16.006,5.114-31.953,10.365-50.33
				c4.227-14.796,8.97-34.473,10.54-43.728c3.049-17.971,4.101-20.853,18.916-51.788c14.325-29.915,34.413-53.707,54.762-64.861
				c6.708-3.678,14.615-9.181,17.569-12.229l5.371-5.542l-7.073-16.995c-3.89-9.348-6.716-17.353-6.279-17.79
				s5.784-1.649,11.882-2.693c11.321-1.94,31.687-0.055,68.201,6.311c21.723,3.788,49.369,6.93,50.553,5.746
				c0.59-0.591-0.208-8.66-1.774-17.931c-3.255-19.267-20.332-64.845-30.153-80.483c-13.36-21.271-19.734-28.023-31.391-33.252
				c-6.094-2.734-13.275-6.819-15.959-9.077c-6.081-5.116-18.175-11.047-25.526-12.517c-9.534-1.907-8.799,2.959,1.99,13.163
				c5.409,5.116,14.839,17.462,21.693,28.403c6.669,10.645,18.464,27.164,26.212,36.709c15.564,19.174,18.761,24.564,27.025,45.558
				c8.038,20.422,4.215,19.053-13.31-4.767c-5.967-8.111-22.229-26.464-36.138-40.785c-21.608-22.249-26.552-28.399-33.966-42.256
				c-4.773-8.919-11.226-19.208-14.341-22.864C360.078,117.851,343.592,114.025,317.376,116.33L317.376,116.33"/>
		</g>
		<g>
			<path d="M585.516,269.666c0,11.177,17.366,27.081,21.777,19.945c0.635-1.028-0.49-3.401-2.501-5.275
				c-4.229-3.94-4.726-6.741-1.194-6.741c5.185,0,8.533,2.531,13.307,10.058c2.898,4.571,8.193,9.664,12.806,12.318
				c9.726,5.596,31.259,29.579,36.006,40.103c7.377,16.355,29.357,84.664,36.73,114.148c4.23,16.922,10.85,46.05,14.709,64.727
				c6.676,32.315,13.13,58.455,14.859,60.185c2.183,2.183,2.851-13.032,1.171-26.681c-5.248-42.68-37.895-158.891-60.882-216.718
				c-7.03-17.689-21.498-45.919-26.018-50.771c-7.668-8.231-26.558-17.621-39.088-19.432
				C586.602,262.557,585.516,262.764,585.516,269.666L585.516,269.666"/>
		</g>
		<g>
			<path d="M556.012,274.616c-8.842,3.572-9.583,4.313-10.065,10.062c-0.464,5.531,5.57,25.892,7.674,25.892
				c0.456,0,3.229-1.242,6.164-2.76c5.056-2.614,5.28-3.165,4.27-10.532c-0.728-5.309-0.246-9.359,1.521-12.775
				c2.711-5.242,3.516-13.889,1.284-13.798C566.144,270.735,561.262,272.495,556.012,274.616L556.012,274.616"/>
		</g>
		<g>
			<path d="M405.262,298.352c-14.897,4.258-51.611,23.064-62.563,32.048c-9.632,7.9-27.862,28.482-27.901,31.5
				c-0.057,4.468,20.898,17.574,24.52,15.336c0.697-0.432,4.822-6.13,9.166-12.664c12.164-18.297,46.697-43.599,67.934-49.771
				c14.346-4.171,50.216-2.876,61.706,2.228c4.411,1.959,8.496,4.332,9.077,5.272c1.646,2.662-9.648,3.85-36.838,3.87
				c-23.199,0.017-25.663,0.34-35.146,4.595c-5.607,2.517-10.195,5.324-10.195,6.24c0,0.915,1.614,3.934,3.589,6.705
				c2.784,3.909,4.943,5.041,9.625,5.041c12.034,0,19.466,13.212,13.523,24.047c-4.627,8.438-7.775,10.016-14.466,7.243
				c-6.736-2.79-10.537-9.707-10.537-19.177c0-5.128-1.493-9.32-5.283-14.828c-5.282-7.678-5.282-7.678-9.979-4.706
				c-15.302,9.685-33.332,24.058-33.332,26.571c0,4.046,21.424,20.891,34.341,27.002c12.962,6.132,35.769,9.925,54.171,9.01
				c12.912-0.642,16.736-1.661,30.66-8.173l15.909-7.44l10.168,8.428c5.593,4.636,12.101,9.701,14.464,11.259
				c4.294,2.831,4.294,2.831,0.823,6.73c-3.345,3.759-4.231,3.862-24.297,2.842c-29.971-1.522-56.692,2.882-75.496,12.442
				c-8.876,4.513-9.533,5.272-9.366,10.83c0.099,3.288,3.775,15.044,8.17,26.124c5.143,12.966,8.414,24.272,9.177,31.723
				c0.653,6.366,1.772,11.938,2.488,12.379c0.716,0.443,4.492-4.564,8.39-11.127c11.833-19.917,36.969-35.821,70.521-44.624
				c9.546-2.504,17.834-5.312,18.418-6.24s1.519-7.282,2.077-14.121c0.558-6.838,2.568-16.584,4.47-21.657l3.455-9.226
				l-10.992-14.239c-10.479-13.577-11.044-14.804-12.114-26.354c-0.616-6.663-1.536-15.711-2.044-20.106
				c-0.923-7.992-0.923-7.992,9.186-9.89c5.559-1.044,14.498-2.405,19.863-3.026c9.758-1.13,9.758-1.13,10.566,4.382l0.809,5.511
				l-14.471-1.206c-14.471-1.205-14.471-1.205-14.471,3.339c0,4,0.698,4.544,5.832,4.544c3.208,0,9.456,0.497,13.885,1.104
				c6.304,0.864,8.052,1.806,8.052,4.339c0,2.869-1.474,3.235-13.017,3.235c-10.297,0-13.071,0.544-13.277,2.603
				c-0.143,1.432-0.338,3.516-0.433,4.631c-0.121,1.406,3.611,1.904,12.181,1.626c10.278-0.333,12.546,0.098,13.491,2.561
				c1.555,4.052,0.44,4.777-8.997,5.863c-5.688,0.654-8.171,1.73-8.171,3.542c0,1.951,2.826,2.839,11.281,3.54
				c8.925,0.741,13.241,2.19,20.667,6.939c9.07,5.8,10.051,6.023,29.187,6.63c23.283,0.739,30.706-1.355,42.115-11.889
				c7.327-6.766,7.377-6.894,6.59-16.865c-0.924-11.712-10.207-29.149-18.76-35.24c-8.882-6.324-34.301-6.814-42.307-0.816
				c-3.218,2.409-3.197,2.768,0.867,15.688c3.226,10.25,5.188,13.76,8.73,15.615c5.864,3.071,7.758,10.203,4.165,15.687
				c-3.7,5.647-10.381,7.018-17.55,3.599c-7.647-3.646-9.244-9.689-4.371-16.532c2.002-2.812,3.626-6.946,3.606-9.185
				c-0.052-6.323-4.497-21.453-6.227-21.192c-0.853,0.129-3.307,0.767-5.454,1.419c-5.284,1.603-5.173-2.46,0.205-7.513
				c5.48-5.149,26.11-12.281,35.655-12.326c13.982-0.067,26.119,5.017,36.101,15.124c12.051,12.202,13.378,17.51,11.917,47.679
				c-1.284,26.529-0.667,28.905,11.735,45.152c12.827,16.804,12.831,19.81,0.064,44.268c-12.198,23.369-12.741,25.28-10.778,37.896
				c2.792,17.955,8.005,32.018,14.559,39.271c8.265,9.148,10.587,14.421,7.819,17.756c-1.177,1.417-7.345,5.434-13.706,8.925
				c-15.133,8.304-76.002,47.379-90.908,58.356c-6.41,4.721-14.437,12.372-17.834,17.001c-3.398,4.63-8.962,10.861-12.364,13.849
				c-7.323,6.43-9.083,5.618-15.562-7.168c-2.317-4.57-9.149-14.382-15.185-21.803c-14.775-18.172-39.343-51.75-39.343-53.775
				c0-2.701,7.815-9.181,11.073-9.181c6.236,0,9.557,3.757,14.165,16.028c7.308,19.46,19.671,42.491,25.396,47.308
				c6.806,5.727,10.152,5.489,18.272-1.291c3.715-3.102,19.854-13.402,35.867-22.89c28.211-16.716,48.418-31.722,55.354-41.108
				c2.707-3.661,2.988-5.265,1.433-8.17c-1.669-3.118-3.416-3.577-12.759-3.349c-5.954,0.146-18.636-0.679-28.181-1.833
				c-12.75-1.541-24.033-1.638-42.521-0.364c-13.841,0.953-32.985,1.745-42.546,1.759c-14.031,0.021-18.629,0.695-23.856,3.497
				c-3.838,2.058-9.838,3.482-14.728,3.497c-11.688,0.038-13.96,1.827-11.293,8.894c1.163,3.082,1.788,5.931,1.389,6.331
				c-0.401,0.4-6.44,1.371-13.422,2.156c-6.98,0.786-23.312,3.394-36.291,5.794c-12.979,2.401-31.926,5.334-42.103,6.517
				c-12.558,1.46-19.246,3.026-20.816,4.874c-1.272,1.497-4.096,9.504-6.274,17.791c-4.889,18.599-4.12,23.682,6.137,40.578
				c4.228,6.965,7.688,13.224,7.688,13.909c0,0.684-2.734,4.579-6.075,8.656c-3.34,4.077-6.074,8.16-6.074,9.072
				c0,3.572,9.302,18.045,13.269,20.644c3.39,2.222,6.952,2.523,18.61,1.577c11.507-0.934,17.888-0.417,31.62,2.561
				c15.653,3.394,20.094,3.617,49.286,2.467c17.994-0.709,35.905-2.326,40.785-3.682c4.787-1.33,17.684-3.993,28.661-5.917
				c22.021-3.86,20.387-2.814,39.05-25.006c6.719-7.989,7.332-8.299,19.091-9.61c17.64-1.968,57.901-19.534,83.199-36.299
				c27.393-18.154,53.171-37.096,54.913-40.35c1.794-3.353-1.614-25.096-9.891-63.091c-1.455-6.681-6.845-33.235-11.978-59.008
				c-12.773-64.145-27.194-112.587-38.85-130.502c-9.097-13.983-21.547-27.344-28.599-30.691c-9.313-4.419-19.177-3.402-48.856,5.04
				c-30.812,8.764-48.59,12.035-58.31,10.731c-3.583-0.48-13.531-4.923-22.106-9.872c-17.681-10.204-30.228-14.575-49.558-17.263
				C429.24,294.25,418.218,294.65,405.262,298.352L405.262,298.352"/>
		</g>
		<g>
			<path d="M312.438,386.426c-4.885,1.259-10.983,17.101-15.013,39.001c-1.988,10.807-3.973,21.338-4.41,23.404
				c-0.66,3.115,1.205,4.934,10.915,10.646c6.441,3.788,22.645,13.493,36.008,21.566c29.845,18.029,66.144,37.158,86.245,45.451
				c16.441,6.783,17.021,6.943,17.021,4.704c0-0.837-8.005-4.836-17.79-8.889c-21.913-9.075-49.502-26.52-51.908-32.819
				c-1.687-4.418-6.666-40.462-6.666-48.255c0-2.185,0.586-3.971,1.302-3.97c0.716,0.001,5.987,4.284,11.715,9.519
				c5.727,5.233,10.933,9.528,11.569,9.543c2.793,0.066,12.791,15.222,18.104,27.441c6.861,15.785,10.297,18.407,8.997,6.867
				c-0.499-4.424-5.039-16.439-10.442-27.636c-7.509-15.558-11.407-21.467-18.168-27.545c-8.671-7.793-70.947-50.43-73.112-50.056
				C316.164,385.51,314.2,385.972,312.438,386.426L312.438,386.426"/>
		</g>
		<g>
			<path d="M563.354,408.163c-8.78,1.837-8.259,4.05,1.339,5.672c10.044,1.696,13.861,7.338,13.962,20.626
				c0.08,10.613,0.08,10.613,17.387,26.059c22.251,19.858,36.394,30.812,38.781,30.035c3.86-1.256,18.977-38.779,21.303-52.881
				c1.23-7.463-0.836-9.604-14.726-15.256c-9.387-3.819-15.64-4.964-32.453-5.941c-17.163-0.996-22.353-1.971-29.504-5.537
				C572.032,407.244,569.682,406.838,563.354,408.163L563.354,408.163"/>
		</g>
		<g>
			<path d="M505.173,487.278c-21.411,27.651-26.278,32.319-40.651,38.979c-4.966,2.301-10.231,5.183-11.702,6.402
				c-3.349,2.778-3.483,11.112-0.224,13.816c3.519,2.921,12.415,3.288,11.845,0.49c-0.876-4.286,3.235-9.072,11.365-13.23
				c5.28-2.7,9.712-6.701,12.496-11.278c6.243-10.263,6.424-10.096,9.704,8.96c1.036,6.021,1.562,6.508,7.001,6.508
				c5.347,0,5.882-0.463,5.882-5.081c0-2.795-0.812-10.924-1.806-18.064c-1.637-11.767-1.483-13.517,1.637-18.647
				c3.443-5.661,3.443-5.661,5.247-1.459c1.455,3.388,10.541,38.65,10.541,40.907c0,1.34,12.007,0.507,12.873-0.893
				c0.51-0.826-0.211-6.88-1.603-13.45c-1.394-6.572-2.545-17.221-2.562-23.663c-0.028-11.156,0.165-11.715,4.059-11.715
				c4.344,0,4.476,0.42,11.825,37.748c2.137,10.847,2.137,10.847,9.599,10.847c4.104,0,7.456-0.586,7.448-1.302
				c-0.009-0.717-1.174-11.064-2.589-22.996s-2.579-21.89-2.588-22.128s1.532-0.435,3.423-0.435c3.53,0,4.086,1.351,6.065,14.752
				c0.563,3.819,2.313,12.605,3.889,19.525l2.862,12.583h8.36h8.36v-11.281c0-6.205,0.585-11.28,1.302-11.278
				c0.716,0.003,3.529,3.53,6.253,7.841c2.723,4.31,8.307,10.586,12.407,13.946l7.457,6.111l6.202-4.209l6.203-4.209l-5.479-7.572
				c-14.885-20.569-32.153-40.619-43.106-50.045l-12.154-10.461l-18.611-0.019c-10.237-0.012-21.409-0.482-24.826-1.047
				C525.363,461.203,525.363,461.203,505.173,487.278L505.173,487.278"/>
		</g>
		<g>
			<path d="M284.684,477.615c-1.56,5.966-5.626,24.124-9.035,40.351c-11.112,52.886-8.733,49.526-43.154,60.937
				c-27.99,9.276-36.935,13.483-65.014,30.578c-16.1,9.8-23.792,15.966-37.996,30.451c-9.794,9.99-18.29,20.082-18.878,22.427
				c-2.447,9.751,6.775,17.153,32.782,26.316c17.854,6.29,36.968,8.979,64.096,9.013c44.955,0.056,78.329-18.789,82.063-46.337
				c0.498-3.68,1.227-16.152,1.62-27.718c0.782-23.056,2.183-27.422,11.742-36.591c8.546-8.197,14.156-9.952,59.718-18.682
				c60.973-11.684,62.262-11.992,62.858-15.087c0.456-2.367-3.177-2.866-26.892-3.691c-15.079-0.525-37.57-2.54-49.979-4.479
				c-12.409-1.938-29.81-4.07-38.67-4.736c-8.859-0.667-16.524-1.887-17.033-2.711c-0.509-0.824-0.402-3.148,0.238-5.165
				c1.118-3.521,1.931-3.629,20.505-2.714c17.926,0.883,64.131,5.604,94.895,9.698c7.191,0.957,16.91,1.191,21.598,0.521
				l8.521-1.219l-16.391-6.477c-9.016-3.561-23.029-8.716-31.142-11.454c-18.328-6.185-27.519-10.825-57.897-29.232
				c-20.893-12.661-42.994-24.848-45.061-24.848C287.817,466.768,286.244,471.649,284.684,477.615L284.684,477.615"/>
		</g>
		<g>
			<path d="M641.64,539.658c-7.581,3.057-7.352,18.59,0.35,23.636c5.594,3.665,10.34,2.046,7.816-2.667
				c-2.082-3.89-2.447-14.011-0.509-14.051c0.716-0.016,2.47-0.766,3.897-1.667c2.226-1.407,2.102-2.013-0.868-4.257
				C648.385,537.673,646.903,537.536,641.64,539.658L641.64,539.658"/>
		</g>
		<g>
			<path d="M309.096,653.707c-0.944,8.376-3.371,11.451-19.645,24.885c-6.452,5.326-9.076,16.402-5.151,21.744
				c2.124,2.893,4.352,3.274,16.838,2.893c8.737-0.267,15.175-1.289,16.389-2.603c2.661-2.883,5.924-16.79,5.924-25.255
				c0-6.919-9.172-29.843-11.94-29.843C310.69,645.528,309.603,649.209,309.096,653.707L309.096,653.707"/>
		</g>
	</g>

</svg>
